<svg id="Layer_1" data-name="Layer 1" xmlns="http://www.w3.org/2000/svg" xmlns:xlink="http://www.w3.org/1999/xlink" width="700" height="700" viewBox="0 0 700 700"><defs><style>.cls-1{fill:url(#linear-gradient);}.cls-2{fill:#fff;}.cls-3{fill:none;}</style><linearGradient id="linear-gradient" x1="375" y1="64.93" x2="375" y2="677.94" gradientTransform="matrix(1, 0, 0, -1, 0, 752)" gradientUnits="userSpaceOnUse"><stop offset="0" stop-color="#fa233b"/><stop offset="1" stop-color="#fb5c74"/></linearGradient></defs><title>apple_music_logo</title><path class="cls-1" d="M689.5,257.26q0-11.26,0-22.54c0-6.32-.11-12.65-.28-19-.37-13.79-1.19-27.68-3.64-41.31a139.62,139.62,0,0,0-12.94-39.29A132.28,132.28,0,0,0,614.84,77.4a140.09,140.09,0,0,0-39.26-13C562,62,548.05,61.19,534.26,60.82c-6.32-.17-12.65-.24-19-.28q-11.28,0-22.54,0H257.25q-11.26,0-22.54,0c-6.32,0-12.65.11-19,.28C202,61.2,188.05,62,174.42,64.47a138.92,138.92,0,0,0-39.26,13,132.19,132.19,0,0,0-57.77,57.74,139.68,139.68,0,0,0-12.94,39.3C62,188.09,61.18,202,60.81,215.76c-.17,6.33-.24,12.65-.28,19q0,11.25,0,22.52V492.74q0,11.26,0,22.54c0,6.32.11,12.65.28,19,.37,13.79,1.19,27.68,3.64,41.3a139.68,139.68,0,0,0,12.94,39.3,132.28,132.28,0,0,0,57.77,57.75,140.07,140.07,0,0,0,39.26,12.94c13.63,2.45,27.53,3.27,41.32,3.64,6.32.17,12.65.24,19,.28,7.52,0,15,0,22.54,0H492.73q11.26,0,22.54,0c6.32,0,12.65-.11,19-.28,13.79-.37,27.7-1.19,41.32-3.64a139.22,139.22,0,0,0,39.26-12.94,132.28,132.28,0,0,0,57.77-57.75,140,140,0,0,0,12.95-39.3c2.44-13.62,3.26-27.53,3.63-41.3.17-6.33.24-12.65.28-19,0-7.52,0-15,0-22.54V257.26Z" transform="translate(-25 -25)"/><path class="cls-2" d="M505.17,156.6c-1.52.14-15,2.54-16.65,2.87l-187,37.72-.07,0a26.06,26.06,0,0,0-11.65,5.24c-3.56,3-5.54,7.22-6.29,12.14a42.25,42.25,0,0,0-.42,6.33v234c0,5.47-.44,10.78-4.14,15.3s-8.28,5.89-13.65,7l-12.21,2.46c-15.44,3.11-25.49,5.22-34.59,8.75-8.71,3.37-15.22,7.67-20.41,13.12a49.75,49.75,0,0,0,2.48,70.24,47.09,47.09,0,0,0,22.7,11.64c9.31,1.87,19.23,1.22,33.73-1.71a68.69,68.69,0,0,0,21.84-8.06,55,55,0,0,0,17.22-15.91,58.25,58.25,0,0,0,9.15-21.58A108.23,108.23,0,0,0,307.33,513V310c0-10.87,3.07-13.74,11.85-15.87,0,0,155.39-31.34,162.65-32.76,10.11-1.94,14.88,1,14.88,11.55V411.49c0,5.49,0,11-3.79,15.58s-8.28,5.89-13.65,7l-12.21,2.46c-15.44,3.11-25.49,5.22-34.59,8.75-8.7,3.38-15.22,7.67-20.41,13.13a48.89,48.89,0,0,0,2.48,70.23,47.09,47.09,0,0,0,22.7,11.54c9.31,1.87,19.23,1.2,33.74-1.72a68.4,68.4,0,0,0,21.84-8A55,55,0,0,0,510,514.58,58.25,58.25,0,0,0,519.18,493c1.68-8,1.75-15.2,1.75-23.17V173.13C521,162.37,515.29,155.73,505.17,156.6Z" transform="translate(-25 -25)"/><rect class="cls-3" width="700" height="700"/></svg>